<?xml version="1.0" encoding="utf-8" standalone="yes"?>
<!DOCTYPE svg PUBLIC "-//W3C//DTD SVG 1.1//EN" "http://www.w3.org/Graphics/SVG/1.1/DTD/svg11.dtd">
<svg width="780" height="349" viewBox="0 0 780 349" style="fill:none;stroke:none;fill-rule:evenodd;clip-rule:evenodd;stroke-linecap:round;stroke-linejoin:round;stroke-miterlimit:1.5;" version="1.1" xmlns="http://www.w3.org/2000/svg" xmlns:xlink="http://www.w3.org/1999/xlink"><style class="text-font-style fontImports" data-font-family="Roboto">@import url('https://fonts.googleapis.com/css2?family=Roboto:wght@400;700&amp;display=block');</style><rect id="" x="0" y="0" width="780" height="348.5" style="fill: #ffffff;"></rect><g id="items" style="isolation: isolate"><g id="blend" style="mix-blend-mode: normal"><g id="g-root-tf_znterg18qbyfh-fill" data-item-order="-271830"><g id="tf_znterg18qbyfh-fill" stroke="none" fill="#ffffff"><g><path d="M 0 0L 780 0L 780 348.5L 0 348.5Z"></path></g></g></g><g id="g-root-sy_3_cu_quoav018q7qww-fill" data-item-order="-56368" transform="translate(275.13970947265625, 98)"><g id="sy_3_cu_quoav018q7qww-fill" stroke="none" fill="url(#gradient-d98afd-525750490)"><g><path d="M 206.994 130L 148.333 130L 176 82L 162.167 58L 134 58L 147.834 82L 120.167 130L 64.8336 130L 51.0003 106L 23.8333 106L 51.5 154L 206.994 154C 211.624 164.595 222.196 172 234.498 172C 251.067 172 264.498 158.569 264.498 142C 264.498 125.431 251.067 112 234.498 112C 222.196 112 211.624 119.405 206.994 130ZM 10 82L 37.167 82L 64.8337 34L 148.333 34L 134.5 10.000004L 51.5 10L 10 82Z"></path></g></g></g><g id="g-root-sy_2_cu_quoav018q7qwx-fill" data-item-order="-56364" transform="translate(302.30670166015625, 104)"><g id="sy_2_cu_quoav018q7qwx-fill" stroke="none" fill="url(#gradient-76aaff-163240667)"><g><path d="M 37.6667 28L 179.829 28C 184.458 17.4046 195.03 10 207.332 10C 223.9 10 237.331 23.431 237.331 39.999C 237.331 56.567 223.9 69.998 207.332 69.998C 195.031 69.998 184.459 62.5944 179.83 52L 106.8333 52L 120.667 76L 93 124L 37.6667 124L 23.8333 100L 78.666 100L 92.4994 76L 78.666 52L 50.9993 52L 37.166 76L 10 76L 37.6667 28Z"></path></g></g></g><g id="g-root-sy_1_cu_hznrp818q7oju-fill" data-item-order="-56360" transform="translate(181.6396484375, 146)"><defs><linearGradient id="gradient-d98afd-525750490" x2="0" y2="1"><stop offset="0" stop-color="#e4a9ff"></stop><stop offset="1" stop-color="#cd6afb"></stop></linearGradient><linearGradient id="gradient-76aaff-163240667" x2="0" y2="1"><stop offset="0" stop-color="#9cc2ff"></stop><stop offset="1" stop-color="#4f92ff"></stop></linearGradient><linearGradient id="gradient-64edab-240055791" x2="0" y2="1"><stop offset="0" stop-color="#83fac1"></stop><stop offset="1" stop-color="#44e095"></stop></linearGradient></defs><g id="sy_1_cu_hznrp818q7oju-fill" stroke="none" fill="url(#gradient-64edab-240055791)"><g><path d="M 213.166 34L 199.333 58L 67.9192 58C 63.5318 69.1266 52.6854 77 40 77C 23.4315 77 10 63.5685 10 47C 10 30.4315 23.4315 17 40 17C 51.9111 17 62.2009 23.9416 67.0447 34L 157.833 34L 171.666 10L 199.333 10L 213.166 34Z"></path></g></g></g><g id="g-root-tx_progress_hznrp818q7ojv-fill" data-item-order="0" transform="translate(157.6396484375, 38)"><g id="tx_progress_hznrp818q7ojv-fill" stroke="none" fill="#484848"><g><text style="font-style: normal; font-variant-caps: normal; font-weight: bold; font-stretch: normal; font-size: 20px; line-height: normal; font-family: Roboto, sans-serif; font-size-adjust: none; font-kerning: auto; font-variant-alternates: normal; font-variant-ligatures: normal; font-variant-numeric: normal; font-variant-east-asian: normal; font-variant-position: normal; font-variant-emoji: normal; font-feature-settings: normal; font-optical-sizing: auto; font-variation-settings: normal; white-space: pre;"><tspan x="15.02" y="34" dominant-baseline="ideographic">Progressive Complexity in User Experience</tspan></text></g></g></g><g id="g-root-ic_1_1qdusxo18q94wd-fill" data-item-order="0" transform="translate(481.638671875, 116)"></g><g id="g-root-tx_graduali_4mwos18qbxtu-fill" data-item-order="0" transform="translate(541.6396484375, 122)"><g id="tx_graduali_4mwos18qbxtu-fill" stroke="none" fill="#4e88e7"><g><text style="font-style: normal; font-variant-caps: normal; font-weight: bold; font-stretch: normal; font-size: 20px; line-height: normal; font-family: Roboto, sans-serif; font-size-adjust: none; font-kerning: auto; font-variant-alternates: normal; font-variant-ligatures: normal; font-variant-numeric: normal; font-variant-east-asian: normal; font-variant-position: normal; font-variant-emoji: normal; font-feature-settings: normal; font-optical-sizing: auto; font-variation-settings: normal; white-space: pre;"><tspan x="12" y="34" dominant-baseline="ideographic">Gradual Introduction</tspan></text></g></g></g><g id="g-root-tx_simplici_1cz9x4s18qbwuk-fill" data-item-order="0" transform="translate(73.6396484375, 170)"><g id="tx_simplici_1cz9x4s18qbwuk-fill" stroke="none" fill="#3cc583"><g><text style="font-style: normal; font-variant-caps: normal; font-weight: bold; font-stretch: normal; font-size: 20px; line-height: normal; font-family: Roboto, sans-serif; font-size-adjust: none; font-kerning: auto; font-variant-alternates: normal; font-variant-ligatures: normal; font-variant-numeric: normal; font-variant-east-asian: normal; font-variant-position: normal; font-variant-emoji: normal; font-feature-settings: normal; font-optical-sizing: auto; font-variation-settings: normal; white-space: pre;"><tspan x="14" y="34" dominant-baseline="ideographic">Simplicity</tspan></text></g></g></g><g id="g-root-ic_2_4o79bw18q7q4s-fill" data-item-order="0" transform="translate(193.6396484375, 164)"></g><g id="g-root-tx_slowlyad_dg3f2418qbw8x-fill" data-item-order="0" transform="translate(542, 158.5)"><g id="tx_slowlyad_dg3f2418qbw8x-fill" stroke="none" fill="#484848"><g><text style="font-style: normal; font-variant-caps: normal; font-weight: normal; font-stretch: normal; font-size: 15px; line-height: normal; font-family: Roboto, sans-serif; font-size-adjust: none; font-kerning: auto; font-variant-alternates: normal; font-variant-ligatures: normal; font-variant-numeric: normal; font-variant-east-asian: normal; font-variant-position: normal; font-variant-emoji: normal; font-feature-settings: normal; font-optical-sizing: auto; font-variation-settings: normal; white-space: pre;"><tspan x="12" y="28" dominant-baseline="ideographic">Slowly add features as users </tspan><tspan x="12" y="46" dominant-baseline="ideographic">adapt</tspan></text></g></g></g><g id="g-root-tx_basicfun_1qa3yf018qbyff-fill" data-item-order="0" transform="translate(14, 206.5)"><g id="tx_basicfun_1qa3yf018qbyff-fill" stroke="none" fill="#484848"><g><text style="font-style: normal; font-variant-caps: normal; font-weight: normal; font-stretch: normal; font-size: 15px; line-height: normal; font-family: Roboto, sans-serif; font-size-adjust: none; font-kerning: auto; font-variant-alternates: normal; font-variant-ligatures: normal; font-variant-numeric: normal; font-variant-east-asian: normal; font-variant-position: normal; font-variant-emoji: normal; font-feature-settings: normal; font-optical-sizing: auto; font-variation-settings: normal; white-space: pre;"><tspan x="18" y="28" dominant-baseline="ideographic">Basic functionality for </tspan><tspan x="53" y="46" dominant-baseline="ideographic">immediate tasks</tspan></text></g></g></g><g id="g-root-ic_7_1ursvss18qaj9i-fill" data-item-order="0" transform="translate(481.6396484375, 212)"></g><g id="g-root-tx_advanced_hvag3g18qbymg-fill" data-item-order="0" transform="translate(541.6396484375, 218)"><g id="tx_advanced_hvag3g18qbymg-fill" stroke="none" fill="#ba5de5"><g><text style="font-style: normal; font-variant-caps: normal; font-weight: bold; font-stretch: normal; font-size: 20px; line-height: normal; font-family: Roboto, sans-serif; font-size-adjust: none; font-kerning: auto; font-variant-alternates: normal; font-variant-ligatures: normal; font-variant-numeric: normal; font-variant-east-asian: normal; font-variant-position: normal; font-variant-emoji: normal; font-feature-settings: normal; font-optical-sizing: auto; font-variation-settings: normal; white-space: pre;"><tspan x="12" y="34" dominant-baseline="ideographic">Advanced Features</tspan></text></g></g></g><g id="g-root-tx_complext_zmkgl818qbw9b-fill" data-item-order="0" transform="translate(542, 254.5)"><g id="tx_complext_zmkgl818qbw9b-fill" stroke="none" fill="#484848"><g><text style="font-style: normal; font-variant-caps: normal; font-weight: normal; font-stretch: normal; font-size: 15px; line-height: normal; font-family: Roboto, sans-serif; font-size-adjust: none; font-kerning: auto; font-variant-alternates: normal; font-variant-ligatures: normal; font-variant-numeric: normal; font-variant-east-asian: normal; font-variant-position: normal; font-variant-emoji: normal; font-feature-settings: normal; font-optical-sizing: auto; font-variation-settings: normal; white-space: pre;"><tspan x="12" y="28" dominant-baseline="ideographic">Complex tools for </tspan><tspan x="12" y="46" dominant-baseline="ideographic">experienced users</tspan></text></g></g></g><g id="g-root-tf_znterg18qbyfh-stroke" data-item-order="-271830"></g><g id="g-root-sy_3_cu_quoav018q7qww-stroke" data-item-order="-56368" transform="translate(275.13970947265625, 98)"><g id="sy_3_cu_quoav018q7qww-stroke" fill="none" stroke-linecap="round" stroke-linejoin="round" stroke-miterlimit="4" stroke="#484848" stroke-width="2"><g><path d="M 206.9943 130L 148.3333 130L 176 82L 162.1667 58L 134.0003 58L 147.8337 82L 120.167 130L 64.8336 130L 51.0003 106L 23.8333 106L 51.5 154L 206.9943 154C 211.6237 164.5954 222.1961 172 234.498 172C 251.0666 172 264.498 158.5685 264.498 142C 264.498 125.4315 251.0666 112 234.498 112C 222.1961 112 211.6237 119.4046 206.9943 130ZM 10 82L 37.167 82L 64.8337 34L 148.3333 34L 134.5 10L 51.5 10L 10 82Z"></path></g></g></g><g id="g-root-sy_2_cu_quoav018q7qwx-stroke" data-item-order="-56364" transform="translate(302.30670166015625, 104)"><g id="sy_2_cu_quoav018q7qwx-stroke" fill="none" stroke-linecap="round" stroke-linejoin="round" stroke-miterlimit="4" stroke="#484848" stroke-width="2"><g><path d="M 37.6667 28L 179.8289 28C 184.458 17.4046 195.0303 10 207.332 10C 223.9 10 237.3311 23.431 237.3311 39.999C 237.3311 56.567 223.9 69.998 207.332 69.998C 195.031 69.998 184.4593 62.5944 179.8298 52L 106.8333 52L 120.6667 76L 93 124L 37.6667 124L 23.8333 100L 78.666 100L 92.4994 76L 78.666 52L 50.9993 52L 37.166 76L 10 76L 37.6667 28Z"></path></g></g></g><g id="g-root-sy_1_cu_hznrp818q7oju-stroke" data-item-order="-56360" transform="translate(181.6396484375, 146)"><g id="sy_1_cu_hznrp818q7oju-stroke" fill="none" stroke-linecap="round" stroke-linejoin="round" stroke-miterlimit="4" stroke="#484848" stroke-width="2"><g><path d="M 213.1664 34L 199.3331 58L 67.9192 58C 63.5318 69.1266 52.6854 77 40 77C 23.4315 77 10 63.5685 10 47C 10 30.4315 23.4315 17 40 17C 51.9111 17 62.2009 23.9416 67.0447 34L 157.8331 34L 171.6664 10L 199.3331 10L 213.1664 34Z"></path></g></g></g><g id="g-root-tx_progress_hznrp818q7ojv-stroke" data-item-order="0" transform="translate(157.6396484375, 38)"></g><g id="g-root-ic_1_1qdusxo18q94wd-stroke" data-item-order="0" transform="translate(481.638671875, 116)"><g id="ic_1_1qdusxo18q94wd-stroke" fill="none" stroke-linecap="round" stroke-linejoin="round" stroke-miterlimit="4" stroke="#484848" stroke-width="2"><g><path d="M 40.213001 35.252499L 37.504002 32.994999L 35.669502 27.491501C 35.346519 26.522757 34.440666 25.868729 33.419498 25.867001L 22.585001 25.867001C 21.563835 25.868729 20.657982 26.522757 20.335001 27.491501L 18.496 32.994999L 15.787 35.252499C 15.245374 35.704086 14.932166 36.37281 14.932 37.077999L 14.932 40.123001C 14.932826 40.77877 15.464228 41.310173 16.119999 41.310997L 18.496 41.311001L 18.496 43.687C 18.496826 44.34277 19.028227 44.874172 19.684 44.874996L 22.059999 44.875C 22.715771 44.874172 23.247173 44.34277 23.247999 43.686996L 23.247999 41.311001L 32.751999 41.311001L 32.751999 43.687C 32.752827 44.34277 33.284229 44.874172 33.939999 44.874996L 36.316002 44.875C 36.971771 44.874172 37.50317 44.34277 37.503998 43.686996L 37.504002 41.311001L 39.880001 41.311001C 40.53577 41.310173 41.067173 40.77877 41.068001 40.122997L 41.068001 37.077999C 41.067833 36.37281 40.754627 35.704086 40.213001 35.252499ZM 18.6085 32.655998L 37.391499 32.655998M 18.1 21.1735L 18.1 13.8115C 18.099762 12.327955 16.897045 11.125432 15.4135 11.125432C 13.929955 11.125432 12.727239 12.327955 12.727 13.8115L 12.727 21.1735M 21.763 11.125L 21.763 18.487C 21.763239 19.970545 22.965956 21.173067 24.449501 21.173067C 25.933044 21.173067 27.135761 19.970545 27.136 18.487L 27.136 11.125M 30.544001 11.125L 35.917 11.125M 33.230499 21.1735L 33.230499 11.125M 37.900002 13.8115C 37.900238 12.327955 39.102955 11.125432 40.586502 11.125432C 42.070045 11.125432 43.272762 12.327955 43.272999 13.8115L 43.272999 18.487C 43.272762 19.970545 42.070045 21.173067 40.586502 21.173067C 39.102955 21.173067 37.900238 19.970545 37.900002 18.487ZM 12.7225 16.6675L 18.095499 16.6675M 18.496 41.311001L 37.504002 41.311001M 18.557499 37.505501L 21.710501 37.505501M 34.289501 37.505501L 37.442501 37.505501"></path></g></g></g><g id="g-root-tx_graduali_4mwos18qbxtu-stroke" data-item-order="0" transform="translate(541.6396484375, 122)"></g><g id="g-root-tx_simplici_1cz9x4s18qbwuk-stroke" data-item-order="0" transform="translate(73.6396484375, 170)"></g><g id="g-root-ic_2_4o79bw18q7q4s-stroke" data-item-order="0" transform="translate(193.6396484375, 164)"><g id="ic_2_4o79bw18q7q4s-stroke" fill="none" stroke-linecap="round" stroke-linejoin="round" stroke-miterlimit="4" stroke="#484848" stroke-width="2"><g><path d="M 19.525 38.5C 19.525 42.227921 22.547077 45.25 26.275002 45.25C 30.002922 45.25 33.025002 42.227921 33.025002 38.5C 33.025002 34.772079 30.002922 31.75 26.275002 31.75C 22.547077 31.75 19.525 34.772079 19.525 38.5M 22.525002 38.5C 22.525002 40.571068 24.203932 42.25 26.275002 42.25C 28.346067 42.25 30.025002 40.571068 30.025002 38.5C 30.025002 36.428932 28.346067 34.75 26.275002 34.75C 24.203932 34.75 22.525002 36.428932 22.525002 38.5M 32.98 37.75L 35.275002 37.75C 36.013271 37.760735 36.649559 37.232613 36.775002 36.505001L 40.209999 17.005001C 40.292259 16.568584 40.176903 16.118155 39.895 15.775C 39.609467 15.43219 39.18615 15.234276 38.739998 15.235L 33.790001 15.235M 19.57 37.75L 17.275 37.75C 16.446573 37.75 15.775 38.421574 15.775 39.25C 15.775 40.078426 16.446573 40.75 17.275 40.75L 19.915001 40.75"></path></g></g></g><g id="g-root-tx_slowlyad_dg3f2418qbw8x-stroke" data-item-order="0" transform="translate(542, 158.5)"></g><g id="g-root-tx_basicfun_1qa3yf018qbyff-stroke" data-item-order="0" transform="translate(14, 206.5)"></g><g id="g-root-ic_7_1ursvss18qaj9i-stroke" data-item-order="0" transform="translate(481.6396484375, 212)"><g id="ic_7_1ursvss18qaj9i-stroke" fill="none" stroke-linecap="round" stroke-linejoin="round" stroke-miterlimit="4" stroke="#484848" stroke-width="2"><g><path d="M 24.781 31.4965L 16.3645 18.652C 15.419894 17.271269 13.544135 16.900219 12.144986 17.817326C 10.745837 18.734432 10.337752 20.602482 11.227 22.019501L 21.9685 38.411499M 18.49 19.0945L 10.783 24.145M 25.312 20.1325L 13.309 27.998499M 23.540501 26.8015L 15.8335 31.851999M 12.112 17.767L 11.2705 16.483M 31.219 31.4965L 39.635498 18.652C 40.580109 17.271269 42.455864 16.900219 43.855015 17.817326C 45.254162 18.734432 45.662251 20.602482 44.773003 22.019501L 34.031502 38.411499M 37.510002 19.0945L 45.217003 24.145M 30.688 20.1325L 42.691002 27.998499M 32.459499 26.8015L 40.1665 31.851999M 43.888 17.767L 44.7295 16.483M 26.08 26.08L 29.92 26.08C 32.4641 26.08 34.526501 28.142401 34.526501 30.686501L 34.526501 43.7365C 34.526501 44.584812 33.83881 45.272503 32.990501 45.272503L 23.009501 45.272499C 22.161192 45.272503 21.473499 44.584812 21.473499 43.736504L 21.473499 30.686501C 21.473499 28.142401 23.5359 26.08 26.08 26.08ZM 27.232 31.455999C 27.232002 31.880156 27.575846 32.224003 28.000002 32.224003C 28.424156 32.224003 28.768002 31.880156 28.768002 31.456001C 28.768002 31.031845 28.424156 30.688002 28.000002 30.688002C 27.575846 30.688002 27.232002 31.031845 27.232002 31.456001M 25.695999 38.7505C 25.696001 40.022964 26.727537 41.054501 28 41.054501C 29.272465 41.054501 30.304001 40.022964 30.304001 38.7505C 30.304001 37.478035 29.272465 36.446503 28 36.446503C 26.727537 36.446503 25.696001 37.478035 25.696001 38.7505M 31.072001 10.723L 24.927999 10.723L 23.009501 15.330999L 32.990501 15.330999L 31.072001 10.723ZM 25.312 15.330999L 30.686501 15.330999L 30.686501 21.473499L 25.312 21.473499Z"></path></g></g></g><g id="g-root-tx_advanced_hvag3g18qbymg-stroke" data-item-order="0" transform="translate(541.6396484375, 218)"></g><g id="g-root-tx_complext_zmkgl818qbw9b-stroke" data-item-order="0" transform="translate(542, 254.5)"></g></g></g></svg>