<?xml version="1.0" encoding="utf-8" standalone="yes"?>
<!DOCTYPE svg PUBLIC "-//W3C//DTD SVG 1.1//EN" "http://www.w3.org/Graphics/SVG/1.1/DTD/svg11.dtd">
<svg width="1044" height="552" viewBox="0 0 1044 552" style="fill:none;stroke:none;fill-rule:evenodd;clip-rule:evenodd;stroke-linecap:round;stroke-linejoin:round;stroke-miterlimit:1.5;" version="1.1" xmlns="http://www.w3.org/2000/svg" xmlns:xlink="http://www.w3.org/1999/xlink"><style class="text-font-style fontImports" data-font-family="Roboto">@import url('https://fonts.googleapis.com/css2?family=Roboto:wght@400;700&amp;display=block');</style><rect id="" x="0" y="0" width="1044" height="552" style="fill: #ffffff;"></rect><g id="items" style="isolation: isolate"><g id="blend" style="mix-blend-mode: normal"><g id="g-root-tf_8vwf0c1aobw23-fill" data-item-order="-576288"><g id="tf_8vwf0c1aobw23-fill" stroke="none" fill="#ffffff"><g><path d="M 0 0L 1044 0L 1044 552L 0 552Z"></path></g></g></g><g id="g-root-cp_2_g-2_1hhl5a41ao7pc8-fill" data-item-order="-454166" transform="translate(518, 98)"><g id="cp_2_g-2_1hhl5a41ao7pc8-fill" stroke="none" fill="url(#gradient-64edab-240055791)"><g><path d="M 490 10L 10 10L 10 124.227C 50.2747 127.291 82 160.941 82 202C 82 243.059 50.2747 276.709 10 279.773L 10 394L 490 394L 490 10Z"></path></g></g></g><g id="g-root-cp_0_g-0_1hhl5a41ao7pca-fill" data-item-order="-454162" transform="translate(446, 224)"><g id="cp_0_g-0_1hhl5a41ao7pca-fill" stroke="none" fill="url(#gradient-cbcbcb-248399021)"><g><path d="M 76 142C 112.451 142 142 112.451 142 76C 142 39.5492 112.451 10 76 10C 39.5492 10 10 39.5492 10 76C 10 112.451 39.5492 142 76 142ZM 103.2699 84.8789C 103.5027 85.4801 103.6191 86.159 103.6191 86.9154C 103.6191 87.8658 103.3766 88.7192 102.8917 89.4756C 102.4262 90.2321 101.6989 90.8236 100.7097 91.2503C 99.7399 91.677 98.4986 91.8904 96.9858 91.8904C 95.7444 91.8904 94.6001 91.7643 93.5527 91.5122C 92.5248 91.26 91.6326 90.8527 90.8761 90.2902C 90.1391 89.7278 89.5669 88.9907 89.1596 88.0791C 88.7523 87.1675 88.5487 86.0523 88.5487 84.7334L 79.7915 84.7334C 79.7915 87.1191 80.2861 89.1847 81.2753 90.9303C 82.2645 92.6759 83.5834 94.1112 85.232 95.2361C 86.9 96.3611 88.7523 97.2048 90.7889 97.7673C 92.8254 98.3103 94.891 98.5819 96.9858 98.5819C 99.3132 98.5819 101.4177 98.32 103.299 97.7963C 105.1804 97.2727 106.7999 96.5065 108.1576 95.498C 109.5153 94.4894 110.553 93.2578 111.271 91.8031C 111.988 90.3484 112.347 88.6998 112.347 86.8572C 112.347 85.1116 112.046 83.5503 111.445 82.1732C 110.844 80.7961 109.9517 79.5645 108.7686 78.4783C 107.5855 77.3922 106.1114 76.4127 104.3464 75.5399C 102.6008 74.6671 100.574 73.8816 98.2659 73.1833C 96.8888 72.7566 95.6766 72.3202 94.6292 71.8741C 93.5818 71.428 92.6993 70.9528 91.9817 70.4485C 91.2641 69.9442 90.721 69.4012 90.3525 68.8193C 90.0033 68.2374 89.8288 67.5877 89.8288 66.87C 89.8288 65.9197 90.0809 65.0662 90.5852 64.3098C 91.0895 63.534 91.8459 62.923 92.8545 62.4769C 93.8631 62.0114 95.1238 61.7787 96.6366 61.7787C 98.2077 61.7787 99.5072 62.0502 100.5352 62.5933C 101.5825 63.1364 102.3583 63.8831 102.8626 64.8335C 103.3863 65.7645 103.6482 66.8506 103.6482 68.092L 112.318 68.092C 112.318 65.5705 111.668 63.3303 110.369 61.3714C 109.0886 59.4124 107.2848 57.8705 104.9574 56.7455C 102.6299 55.6206 99.9048 55.0581 96.7821 55.0581C 94.4934 55.0581 92.389 55.3393 90.4688 55.9018C 88.5681 56.4643 86.9194 57.2692 85.5229 58.3166C 84.1265 59.3445 83.0403 60.5859 82.2645 62.0405C 81.4887 63.4758 81.1008 65.0759 81.1008 66.8409C 81.1008 68.6641 81.4693 70.2643 82.2063 71.6414C 82.9627 73.0185 83.9907 74.2307 85.2902 75.278C 86.6091 76.306 88.122 77.2079 89.8288 77.9837C 91.555 78.7595 93.3782 79.4578 95.2983 80.0785C 97.0246 80.6215 98.4307 81.1452 99.5169 81.6495C 100.603 82.1538 101.4468 82.6678 102.048 83.1915C 102.6493 83.6957 103.0566 84.2582 103.2699 84.8789ZM 77.6095 55.64L 67.8923 55.64L 58.2921 87.8835L 48.7198 55.64L 39.0608 55.64L 53.7238 98L 56.4586 98L 62.8592 98L 77.6095 55.64Z"></path></g></g></g><g id="g-root-cp_1_g-1_1d2e48s1ao7mys-fill" data-item-order="-454158" transform="translate(26, 98)"><defs><linearGradient id="gradient-64edab-240055791" x2="0" y2="1"><stop offset="0" stop-color="#83fac1"></stop><stop offset="1" stop-color="#44e095"></stop></linearGradient><linearGradient id="gradient-cbcbcb-248399021" x2="0" y2="1"><stop offset="0" stop-color="#d9d9d9"></stop><stop offset="1" stop-color="#bcbcbc"></stop></linearGradient><linearGradient id="gradient-fe8884-413551779" x2="0" y2="1"><stop offset="0" stop-color="#ffa6a3"></stop><stop offset="1" stop-color="#fd6a65"></stop></linearGradient></defs><g id="cp_1_g-1_1d2e48s1ao7mys-fill" stroke="none" fill="url(#gradient-fe8884-413551779)"><g><path d="M 490 10L 10 10L 10 394L 490 394L 490 279.773C 449.725 276.709 418 243.059 418 202C 418 160.941 449.725 127.291 490 124.227L 490 10Z"></path></g></g></g><g id="g-root-tx_howtoimp_1d2e48s1ao7myu-fill" data-item-order="0" transform="translate(314, 38)"><g id="tx_howtoimp_1d2e48s1ao7myu-fill" stroke="none" fill="#484848"><g><text style="font-style: normal; font-variant-caps: normal; font-weight: normal; font-stretch: normal; font-size: 20px; line-height: normal; font-family: Roboto, sans-serif; font-size-adjust: none; font-kerning: auto; font-variant-alternates: normal; font-variant-ligatures: normal; font-variant-numeric: normal; font-variant-east-asian: normal; font-variant-position: normal; font-variant-emoji: normal; font-feature-settings: normal; font-optical-sizing: auto; font-variation-settings: normal; white-space: pre;"><tspan x="12.23" y="34" dominant-baseline="ideographic">How to improve user experience effectively?</tspan></text></g></g></g><g id="g-root-ic_warn_zqxlvg1ao7ojr-fill" data-item-order="0" transform="translate(50, 194)"></g><g id="g-root-ic_reco_144voqk1ao92wz-fill" data-item-order="0" transform="translate(782, 194)"></g><g id="g-root-tx_blamingt_1qeh3p81aoahhj-fill" data-item-order="0" transform="translate(266, 224)"><g id="tx_blamingt_1qeh3p81aoahhj-fill" stroke="none" fill="#884542"><g><text style="font-style: normal; font-variant-caps: normal; font-weight: bold; font-stretch: normal; font-size: 20px; line-height: normal; font-family: Roboto, sans-serif; font-size-adjust: none; font-kerning: auto; font-variant-alternates: normal; font-variant-ligatures: normal; font-variant-numeric: normal; font-variant-east-asian: normal; font-variant-position: normal; font-variant-emoji: normal; font-feature-settings: normal; font-optical-sizing: auto; font-variation-settings: normal; white-space: pre;"><tspan x="12" y="34" dominant-baseline="ideographic">Blaming the </tspan><tspan x="12" y="58" dominant-baseline="ideographic">User</tspan></text></g></g></g><g id="g-root-tx_blamingt_zs6k1o1aoahhl-fill" data-item-order="0" transform="translate(638, 224)"><g id="tx_blamingt_zs6k1o1aoahhl-fill" stroke="none" fill="#3f6a56"><g><text style="font-style: normal; font-variant-caps: normal; font-weight: bold; font-stretch: normal; font-size: 20px; line-height: normal; font-family: Roboto, sans-serif; font-size-adjust: none; font-kerning: auto; font-variant-alternates: normal; font-variant-ligatures: normal; font-variant-numeric: normal; font-variant-east-asian: normal; font-variant-position: normal; font-variant-emoji: normal; font-feature-settings: normal; font-optical-sizing: auto; font-variation-settings: normal; white-space: pre;"><tspan x="20" y="34" dominant-baseline="ideographic">Blaming the </tspan><tspan x="57" y="58" dominant-baseline="ideographic">Product</tspan></text></g></g></g><g id="g-root-tx_leadstof_1d30lbw1aoaj2g-fill" data-item-order="0" transform="translate(266, 284)"><g id="tx_leadstof_1d30lbw1aoaj2g-fill" stroke="none" fill="#484848"><g><text style="font-style: normal; font-variant-caps: normal; font-weight: normal; font-stretch: normal; font-size: 15px; line-height: normal; font-family: Roboto, sans-serif; font-size-adjust: none; font-kerning: auto; font-variant-alternates: normal; font-variant-ligatures: normal; font-variant-numeric: normal; font-variant-east-asian: normal; font-variant-position: normal; font-variant-emoji: normal; font-feature-settings: normal; font-optical-sizing: auto; font-variation-settings: normal; white-space: pre;"><tspan x="12" y="31" dominant-baseline="ideographic">Leads to frustration </tspan><tspan x="12" y="49" dominant-baseline="ideographic">and complex </tspan><tspan x="12" y="67" dominant-baseline="ideographic">solutions</tspan></text></g></g></g><g id="g-root-tx_encourag_vcd1x81aoai9u-fill" data-item-order="0" transform="translate(614, 284)"><g id="tx_encourag_vcd1x81aoai9u-fill" stroke="none" fill="#484848"><g><text style="font-style: normal; font-variant-caps: normal; font-weight: normal; font-stretch: normal; font-size: 15px; line-height: normal; font-family: Roboto, sans-serif; font-size-adjust: none; font-kerning: auto; font-variant-alternates: normal; font-variant-ligatures: normal; font-variant-numeric: normal; font-variant-east-asian: normal; font-variant-position: normal; font-variant-emoji: normal; font-feature-settings: normal; font-optical-sizing: auto; font-variation-settings: normal; white-space: pre;"><tspan x="17" y="31" dominant-baseline="ideographic">Encourages intuitive </tspan><tspan x="46" y="49" dominant-baseline="ideographic">design and user </tspan><tspan x="92" y="67" dominant-baseline="ideographic">retention</tspan></text></g></g></g><g id="g-root-tf_8vwf0c1aobw23-stroke" data-item-order="-576288"></g><g id="g-root-cp_2_g-2_1hhl5a41ao7pc8-stroke" data-item-order="-454166" transform="translate(518, 98)"><g id="cp_2_g-2_1hhl5a41ao7pc8-stroke" fill="none" stroke-linecap="round" stroke-linejoin="round" stroke-miterlimit="4" stroke="#484848" stroke-width="2"><g><path d="M 490 10L 10 10L 10 124.2273C 50.2747 127.2911 82 160.9406 82 202C 82 243.0594 50.2747 276.7089 10 279.7727L 10 394L 490 394L 490 10Z"></path></g></g></g><g id="g-root-cp_0_g-0_1hhl5a41ao7pca-stroke" data-item-order="-454162" transform="translate(446, 224)"><g id="cp_0_g-0_1hhl5a41ao7pca-stroke" fill="none" stroke-linecap="round" stroke-linejoin="round" stroke-miterlimit="4" stroke="#484848" stroke-width="2"><g><path d="M 76 142C 112.4508 142 142 112.4508 142 76C 142 39.5492 112.4508 10 76 10C 39.5492 10 10 39.5492 10 76C 10 112.4508 39.5492 142 76 142ZM 103.2699 84.8789C 103.5027 85.4801 103.6191 86.159 103.6191 86.9154C 103.6191 87.8658 103.3766 88.7192 102.8917 89.4756C 102.4262 90.2321 101.6989 90.8236 100.7097 91.2503C 99.7399 91.677 98.4986 91.8904 96.9858 91.8904C 95.7444 91.8904 94.6001 91.7643 93.5527 91.5122C 92.5248 91.26 91.6326 90.8527 90.8761 90.2902C 90.1391 89.7278 89.5669 88.9907 89.1596 88.0791C 88.7523 87.1676 88.5487 86.0523 88.5487 84.7334L 79.7915 84.7334C 79.7915 87.1191 80.2861 89.1847 81.2753 90.9303C 82.2645 92.6759 83.5834 94.1112 85.232 95.2361C 86.9 96.3611 88.7523 97.2048 90.7889 97.7673C 92.8254 98.3103 94.891 98.5819 96.9858 98.5819C 99.3132 98.5819 101.4177 98.32 103.299 97.7963C 105.1804 97.2727 106.7999 96.5065 108.1576 95.498C 109.5153 94.4894 110.553 93.2578 111.2706 91.8031C 111.9883 90.3484 112.3471 88.6998 112.3471 86.8572C 112.3471 85.1116 112.0465 83.5503 111.4452 82.1732C 110.8439 80.7961 109.9517 79.5645 108.7686 78.4783C 107.5855 77.3922 106.1114 76.4127 104.3464 75.5399C 102.6008 74.6671 100.5739 73.8816 98.2659 73.1833C 96.8888 72.7566 95.6766 72.3202 94.6292 71.8741C 93.5818 71.428 92.6993 70.9528 91.9817 70.4485C 91.2641 69.9442 90.721 69.4012 90.3525 68.8193C 90.0033 68.2374 89.8288 67.5877 89.8288 66.87C 89.8288 65.9197 90.0809 65.0662 90.5852 64.3098C 91.0895 63.534 91.8459 62.923 92.8545 62.4769C 93.8631 62.0114 95.1238 61.7787 96.6366 61.7787C 98.2077 61.7787 99.5072 62.0502 100.5352 62.5933C 101.5825 63.1364 102.3583 63.8831 102.8626 64.8335C 103.3863 65.7645 103.6482 66.8506 103.6482 68.092L 112.318 68.092C 112.318 65.5705 111.6682 63.3303 110.3687 61.3714C 109.0886 59.4124 107.2848 57.8705 104.9574 56.7455C 102.6299 55.6206 99.9048 55.0581 96.7821 55.0581C 94.4934 55.0581 92.389 55.3393 90.4688 55.9018C 88.5681 56.4643 86.9194 57.2692 85.5229 58.3166C 84.1265 59.3445 83.0403 60.5859 82.2645 62.0405C 81.4887 63.4758 81.1008 65.0759 81.1008 66.8409C 81.1008 68.6641 81.4693 70.2643 82.2063 71.6414C 82.9627 73.0184 83.9907 74.2307 85.2902 75.278C 86.6091 76.306 88.122 77.2079 89.8288 77.9837C 91.555 78.7595 93.3782 79.4578 95.2983 80.0785C 97.0246 80.6215 98.4307 81.1452 99.5169 81.6495C 100.603 82.1538 101.4468 82.6678 102.048 83.1915C 102.6493 83.6957 103.0566 84.2582 103.2699 84.8789ZM 77.6095 55.64L 67.8923 55.64L 58.2921 87.8835L 48.7198 55.64L 39.0608 55.64L 53.7238 98L 62.8592 98L 77.6095 55.64Z"></path></g></g></g><g id="g-root-cp_1_g-1_1d2e48s1ao7mys-stroke" data-item-order="-454158" transform="translate(26, 98)"><g id="cp_1_g-1_1d2e48s1ao7mys-stroke" fill="none" stroke-linecap="round" stroke-linejoin="round" stroke-miterlimit="4" stroke="#484848" stroke-width="2"><g><path d="M 490 10L 10 10L 10 394L 490 394L 490 279.7727C 449.7253 276.7089 418 243.0594 418 202C 418 160.9406 449.7253 127.2911 490 124.2273L 490 10Z"></path></g></g></g><g id="g-root-tx_howtoimp_1d2e48s1ao7myu-stroke" data-item-order="0" transform="translate(314, 38)"></g><g id="g-root-ic_warn_zqxlvg1ao7ojr-stroke" data-item-order="0" transform="translate(50, 194)"><g id="ic_warn_zqxlvg1ao7ojr-stroke" fill="none" stroke-linecap="round" stroke-linejoin="round" stroke-miterlimit="4" stroke="#484848" stroke-width="2"><g><path d="M 94 150.000793L 14 150.000793C 13.999808 138.508804 17.53524 127.295197 24.12656 117.880798C 30.71784 108.467201 40.045761 101.3088 50.844639 97.378403C 61.64344 93.447197 73.390244 92.933601 84.490799 95.907204C 95.591202 98.880798 105.508797 105.198402 112.896004 114.000801M 150 158L 150 134M 156.703995 110.000801C 156.055206 108.7864 155.0896 107.770401 153.908798 107.062401C 152.727997 106.354401 151.376801 105.980797 150 105.980797C 148.623199 105.980797 147.272003 106.354401 146.091202 107.062401C 144.911194 107.770401 143.944794 108.7864 143.296005 110.000801L 102.848 187.080795C 102.250397 188.216003 101.959198 189.487198 102.002403 190.769608C 102.046402 192.051193 102.423203 193.300003 103.096001 194.392807C 103.777603 195.490402 104.728798 196.395996 105.858398 197.023193C 106.987999 197.650406 108.260002 197.978394 109.552002 197.976807L 190.447998 197.976807C 191.740005 197.978394 193.011993 197.650406 194.141602 197.023193C 195.271194 196.395996 196.222397 195.490402 196.904007 194.392807C 197.576797 193.300003 197.953598 192.051193 197.997604 190.769608C 198.040802 189.487198 197.749603 188.216003 197.151993 187.080795L 156.703995 110.000801ZM 40.704079 30.7344C 45.967442 36.19688 52.278881 40.541359 59.260479 43.507759C 66.242081 46.474159 73.750397 48.001518 81.336082 47.998402C 89.022476 48.004799 96.628799 46.439442 103.688004 43.398399M 70 82C 88.777679 82 104 66.777679 104 48C 104 29.222321 88.777679 14 70 14C 51.222321 14 36 29.222321 36 48C 36 66.777679 51.222321 82 70 82ZM 150 178C 148.895203 178 148 177.104797 148 176C 148 174.895203 148.895203 174 150 174M 150 178C 151.104797 178 152 177.104797 152 176C 152 174.895203 151.104797 174 150 174"></path></g></g></g><g id="g-root-ic_reco_144voqk1ao92wz-stroke" data-item-order="0" transform="translate(782, 194)"><g id="ic_reco_144voqk1ao92wz-stroke" fill="none" stroke-linecap="round" stroke-linejoin="round" stroke-miterlimit="4" stroke="#484848" stroke-width="2"><g><path d="M 66 180C 67.104568 180 68 180.895432 68 182L 68 182C 68 183.104568 67.104568 184 66 184L 66 184C 64.895432 184 64 183.104568 64 182L 64 182C 64 180.895432 64.895432 180 66 180M 66 180L 66 180M 66 106L 66 118M 50 118L 50 102.991997C 40.15065 98.608322 33.858452 88.7799 34 78C 34 60.326889 48.326889 46 66 46C 83.673111 46 98 60.326889 98 78C 98.142563 88.778221 91.849518 98.604805 82 102.983994L 82 118M 74 76C 74 77.104568 74.895432 78 76 78C 77.104568 78 78 77.104568 78 76C 78 74.895432 77.104568 74 76 74C 74.895432 74 74 74.895432 74 76M 54 76C 54 77.104568 54.895432 78 56 78C 57.104568 78 58 77.104568 58 76C 58 74.895432 57.104568 74 56 74C 54.895432 74 54 74.895432 54 76M 102 150C 102.000008 176.509674 123.490334 198 150 198C 176.509674 198 198 176.509674 198 150C 198 123.490334 176.509674 102.000008 150 102.000008C 123.490334 102.000008 102.000008 123.490334 102.000008 150M 134 150C 134 158.836563 141.163437 166 150 166C 158.836563 166 166 158.836563 166 150C 166 141.163437 158.836563 134 150 134C 141.163437 134 134 141.163437 134 150M 94 198L 30 198C 21.163445 198 14 190.836563 14 182L 14 30C 14 21.163445 21.163445 14 30 14L 102 14C 110.836555 14 118 21.163445 118 30L 118 82M 78 166L 14 166"></path></g></g></g><g id="g-root-tx_blamingt_1qeh3p81aoahhj-stroke" data-item-order="0" transform="translate(266, 224)"></g><g id="g-root-tx_blamingt_zs6k1o1aoahhl-stroke" data-item-order="0" transform="translate(638, 224)"></g><g id="g-root-tx_leadstof_1d30lbw1aoaj2g-stroke" data-item-order="0" transform="translate(266, 284)"></g><g id="g-root-tx_encourag_vcd1x81aoai9u-stroke" data-item-order="0" transform="translate(614, 284)"></g></g></g></svg>